<svg width="24" height="24" viewBox="0 0 24 24" fill="none" xmlns="http://www.w3.org/2000/svg">
<g clip-path="url(#clip0_17303_128)">
<path d="M8.44766 23.0103C9.46797 23.0103 10.2951 22.1833 10.2951 21.1632C10.2951 20.143 9.46797 19.3161 8.44766 19.3161C7.42735 19.3161 6.60022 20.143 6.60022 21.1632C6.60022 22.1833 7.42735 23.0103 8.44766 23.0103Z" stroke="#333333" stroke-width="1.5" stroke-linecap="round" stroke-linejoin="round"/>
<path d="M16.4967 23.0103C17.517 23.0103 18.3442 22.1833 18.3442 21.1632C18.3442 20.143 17.517 19.3161 16.4967 19.3161C15.4764 19.3161 14.6493 20.143 14.6493 21.1632C14.6493 22.1833 15.4764 23.0103 16.4967 23.0103Z" stroke="#333333" stroke-width="1.5" stroke-linecap="round" stroke-linejoin="round"/>
<path d="M4.16526 6.51018L6.3483 13.4208C6.68391 14.4828 6.85116 15.0138 7.17373 15.4069C7.45612 15.7544 7.8243 16.0226 8.24027 16.1887C8.71272 16.3766 9.2688 16.3766 10.3831 16.3766H14.57C15.6843 16.3766 16.2404 16.3766 16.7118 16.1887C17.1288 16.0226 17.4959 15.7544 17.7794 15.4069C18.1009 15.0138 18.2681 14.4828 18.6048 13.4208L19.049 12.0135L19.3097 11.1817L19.6692 10.0415C19.7975 9.63483 19.8281 9.20367 19.7587 8.78294C19.6893 8.36222 19.5217 7.96377 19.2695 7.61986C19.0174 7.27596 18.6878 6.99629 18.3073 6.80349C17.9269 6.6107 17.5064 6.51022 17.08 6.51018H4.16526ZM4.16526 6.51018L4.15332 6.47C4.10745 6.31641 4.05675 6.16431 4.00126 6.01393C3.78138 5.45745 3.40851 4.97454 2.92574 4.62098C2.44296 4.26741 1.86998 4.05764 1.27301 4.01589C1.16114 4.0072 1.03841 4.0072 0.79187 4.0072" stroke="#333333" stroke-width="1.5" stroke-linecap="round" stroke-linejoin="round"/>
</g>
<rect x="16.2162" width="7.78378" height="8.22857" rx="3.89189" fill="#D90C3F"/>
<defs>
<clipPath id="clip0_17303_128">
<rect width="20.7846" height="20.7846" fill="white" transform="translate(0 3.21539)"/>
</clipPath>
</defs>
</svg>
