<svg width="21" height="22" viewBox="0 0 21 22" fill="none" xmlns="http://www.w3.org/2000/svg">
<path d="M8.65579 20.2983C9.6761 20.2983 10.5032 19.4713 10.5032 18.4512C10.5032 17.4311 9.6761 16.6041 8.65579 16.6041C7.63548 16.6041 6.80835 17.4311 6.80835 18.4512C6.80835 19.4713 7.63548 20.2983 8.65579 20.2983Z" stroke="#333333" stroke-width="1.5" stroke-linecap="round" stroke-linejoin="round"/>
<path d="M16.7048 20.2983C17.7251 20.2983 18.5522 19.4713 18.5522 18.4512C18.5522 17.4311 17.7251 16.6041 16.7048 16.6041C15.6845 16.6041 14.8574 17.4311 14.8574 18.4512C14.8574 19.4713 15.6845 20.2983 16.7048 20.2983Z" stroke="#333333" stroke-width="1.5" stroke-linecap="round" stroke-linejoin="round"/>
<path d="M4.37339 3.7982L6.55643 10.7088C6.89204 11.7708 7.05929 12.3018 7.38186 12.6949C7.66425 13.0424 8.03243 13.3106 8.4484 13.4767C8.92085 13.6646 9.47693 13.6646 10.5913 13.6646H14.7781C15.8925 13.6646 16.4485 13.6646 16.9199 13.4767C17.337 13.3106 17.7041 13.0424 17.9875 12.6949C18.309 12.3018 18.4763 11.7708 18.813 10.7088L19.2572 9.30149L19.5178 8.4697L19.8773 7.32952C20.0056 6.92285 20.0363 6.49169 19.9668 6.07097C19.8974 5.65024 19.7298 5.25179 19.4777 4.90789C19.2255 4.56399 18.8959 4.28431 18.5155 4.09152C18.1351 3.89873 17.7146 3.79824 17.2881 3.7982H4.37339ZM4.37339 3.7982L4.36145 3.75803C4.31558 3.60444 4.26488 3.45234 4.20939 3.30195C3.98951 2.74548 3.61664 2.26256 3.13387 1.909C2.65109 1.55544 2.07811 1.34566 1.48114 1.30391C1.36927 1.29523 1.24654 1.29523 1 1.29523" stroke="#333333" stroke-width="1.5" stroke-linecap="round" stroke-linejoin="round"/>
</svg>
