<svg width="105" height="24" viewBox="0 0 105 24" fill="none" xmlns="http://www.w3.org/2000/svg">
<path d="M6.4 4.76001C7.89031 3.2995 9.8968 2.48614 11.9834 2.49668C14.0701 2.50722 16.0682 3.34081 17.5437 4.8163C19.0192 6.29179 19.8528 8.28995 19.8633 10.3766C19.8739 12.4632 19.0605 14.4697 17.6 15.96L13.414 20.146C13.0389 20.521 12.5303 20.7316 12 20.7316C11.4697 20.7316 10.9611 20.521 10.586 20.146L6.4 15.96C4.91488 14.4747 4.08057 12.4604 4.08057 10.36C4.08057 8.25964 4.91488 6.24528 6.4 4.76001Z" stroke="black" stroke-width="1.5" stroke-linejoin="round"/>
<path d="M12 13.36C13.6569 13.36 15 12.0169 15 10.36C15 8.70316 13.6569 7.36002 12 7.36002C10.3431 7.36002 9 8.70316 9 10.36C9 12.0169 10.3431 13.36 12 13.36Z" stroke="black" stroke-width="1.5" stroke-linecap="round" stroke-linejoin="round"/>
<path d="M31.92 18V8.048L32.416 8.56H28.224V6.8H37.696V8.56H33.504L33.984 8.048V18H31.92ZM42.1989 18.112C41.3242 18.112 40.5455 17.9253 39.8629 17.552C39.1802 17.168 38.6415 16.6453 38.2469 15.984C37.8522 15.3227 37.6549 14.5707 37.6549 13.728C37.6549 12.8747 37.8522 12.1227 38.2469 11.472C38.6415 10.8107 39.1802 10.2933 39.8629 9.92C40.5455 9.54667 41.3242 9.36 42.1989 9.36C43.0842 9.36 43.8682 9.54667 44.5509 9.92C45.2442 10.2933 45.7829 10.8053 46.1669 11.456C46.5615 12.1067 46.7589 12.864 46.7589 13.728C46.7589 14.5707 46.5615 15.3227 46.1669 15.984C45.7829 16.6453 45.2442 17.168 44.5509 17.552C43.8682 17.9253 43.0842 18.112 42.1989 18.112ZM42.1989 16.4C42.6895 16.4 43.1269 16.2933 43.5109 16.08C43.8949 15.8667 44.1935 15.5573 44.4069 15.152C44.6309 14.7467 44.7429 14.272 44.7429 13.728C44.7429 13.1733 44.6309 12.6987 44.4069 12.304C44.1935 11.8987 43.8949 11.5893 43.5109 11.376C43.1269 11.1627 42.6949 11.056 42.2149 11.056C41.7242 11.056 41.2869 11.1627 40.9029 11.376C40.5295 11.5893 40.2309 11.8987 40.0069 12.304C39.7829 12.6987 39.6709 13.1733 39.6709 13.728C39.6709 14.272 39.7829 14.7467 40.0069 15.152C40.2309 15.5573 40.5295 15.8667 40.9029 16.08C41.2869 16.2933 41.7189 16.4 42.1989 16.4ZM47.3929 17.984L47.4889 16.304C47.5635 16.3147 47.6329 16.3253 47.6969 16.336C47.7609 16.3467 47.8195 16.352 47.8729 16.352C48.2035 16.352 48.4595 16.2507 48.6409 16.048C48.8222 15.8453 48.9555 15.5733 49.0409 15.232C49.1369 14.88 49.2009 14.4907 49.2329 14.064C49.2755 13.6267 49.3075 13.1893 49.3289 12.752L49.4729 9.456H56.3849V18H54.3849V10.608L54.8489 11.152H50.7849L51.2169 10.592L51.1049 12.848C51.0729 13.6053 51.0089 14.3093 50.9129 14.96C50.8275 15.6 50.6889 16.16 50.4969 16.64C50.3155 17.12 50.0595 17.4933 49.7289 17.76C49.4089 18.0267 48.9982 18.16 48.4969 18.16C48.3369 18.16 48.1609 18.144 47.9689 18.112C47.7875 18.08 47.5955 18.0373 47.3929 17.984ZM63.3664 12.272C64.465 12.272 65.3024 12.5173 65.8784 13.008C66.4544 13.4987 66.7424 14.192 66.7424 15.088C66.7424 16.016 66.4224 16.7413 65.7824 17.264C65.1424 17.776 64.241 18.0267 63.0784 18.016L59.0784 18V9.456H61.0784V12.256L63.3664 12.272ZM62.9024 16.544C63.489 16.5547 63.937 16.432 64.2464 16.176C64.5557 15.92 64.7104 15.5467 64.7104 15.056C64.7104 14.5653 64.5557 14.2133 64.2464 14C63.9477 13.776 63.4997 13.6587 62.9024 13.648L61.0784 13.632V16.528L62.9024 16.544ZM73.3149 18V15.088L73.6029 15.424H71.0429C69.8695 15.424 68.9469 15.1787 68.2749 14.688C67.6135 14.1867 67.2829 13.4667 67.2829 12.528C67.2829 11.5253 67.6349 10.7627 68.3389 10.24C69.0535 9.71733 70.0029 9.456 71.1869 9.456H75.1069V18H73.3149ZM67.1709 18L69.4749 14.736H71.5229L69.3149 18H67.1709ZM73.3149 14.448V10.608L73.6029 11.136H71.2509C70.6322 11.136 70.1522 11.2533 69.8109 11.488C69.4802 11.712 69.3149 12.08 69.3149 12.592C69.3149 13.552 69.9389 14.032 71.1869 14.032H73.6029L73.3149 14.448ZM79.5731 18V10.672L80.0371 11.152H76.5651V9.456H84.5651V11.152H81.1091L81.5731 10.672V18H79.5731ZM87.9169 18V10.672L88.3809 11.152H84.9089V9.456H92.9089V11.152H89.4529L89.9169 10.672V18H87.9169ZM94.3596 18V9.456H96.3596V15.088L101.08 9.456H102.904V18H100.904V12.368L96.1996 18H94.3596Z" fill="#333333"/>
</svg>
