<svg width="20" height="20" viewBox="0 0 20 20" fill="none" xmlns="http://www.w3.org/2000/svg">
<path d="M10.0019 4.68647e-08C11.5359 0.000443934 13.0491 0.353692 14.4247 1.03242C15.8002 1.71115 17.0012 2.69717 17.9347 3.91421C18.8682 5.13125 19.5093 6.54669 19.8082 8.05106C20.1072 9.55542 20.056 11.1084 19.6588 12.5898C19.2615 14.0713 18.5288 15.4415 17.5172 16.5945C16.5057 17.7475 15.2424 18.6524 13.8252 19.2392C12.408 19.826 10.8748 20.079 9.34414 19.9785C7.81351 19.8781 6.32649 19.427 4.99812 18.66L1.09774 19.9567C0.951031 20.0053 0.793678 20.0122 0.643267 19.9766C0.492856 19.941 0.355315 19.8643 0.246017 19.755C0.136719 19.6457 0.0599698 19.5082 0.0243484 19.3578C-0.0112729 19.2074 -0.00436312 19.05 0.0443056 18.9033L1.34276 15.005C0.463832 13.4848 0.000718889 11.76 8.36274e-07 10.0041C-0.000717217 8.24815 0.460985 6.52298 1.33867 5.00208C2.21636 3.48118 3.47909 2.21818 4.99986 1.3401C6.52063 0.462026 8.24582 -0.000169928 10.0019 4.68647e-08ZM10.0019 1.66667C8.51008 1.66634 7.04549 2.06642 5.76104 2.82516C4.47658 3.58389 3.41936 4.67347 2.69971 5.98014C1.98007 7.28682 1.6244 8.76269 1.66981 10.2537C1.71523 11.7447 2.16008 13.1962 2.95792 14.4567C3.02445 14.561 3.06689 14.6789 3.08217 14.8017C3.09745 14.9245 3.08519 15.0492 3.04626 15.1667L2.15118 17.85L4.83643 16.9567C4.9538 16.9175 5.07842 16.905 5.20124 16.92C5.32406 16.9349 5.442 16.9771 5.5465 17.0433C6.6389 17.734 7.87698 18.1612 9.1629 18.2911C10.4488 18.421 11.7473 18.2501 12.9558 17.7919C14.1643 17.3336 15.2497 16.6006 16.1261 15.6508C17.0025 14.7009 17.646 13.5603 18.0056 12.319C18.3653 11.0777 18.4313 9.76978 18.1984 8.49858C17.9656 7.22739 17.4402 6.02777 16.6639 4.99453C15.8876 3.96129 14.8815 3.12276 13.7253 2.54519C12.5691 1.96763 11.2944 1.66686 10.0019 1.66667ZM6.5516 5.005C6.71661 5.005 6.87996 5.005 7.02164 5.01167C7.17166 5.02167 7.37501 4.94833 7.5767 5.465C7.78172 5.99667 8.27343 7.305 8.3351 7.43667C8.39678 7.56833 8.43845 7.72333 8.35677 7.9C8.27343 8.07833 8.23176 8.18833 8.11008 8.34C7.98674 8.49667 7.85172 8.68833 7.74005 8.80667C7.6167 8.93833 7.49002 9.08 7.63337 9.34667C7.77505 9.61 8.2701 10.48 9.00183 11.1817C9.94193 12.0867 10.7353 12.3683 10.982 12.5C11.2287 12.6317 11.3721 12.6067 11.5137 12.4333C11.6571 12.2583 12.1271 11.66 12.2922 11.3933C12.4555 11.13 12.6205 11.1717 12.8455 11.2617C13.0706 11.35 14.2823 11.99 14.5274 12.1217C14.7741 12.2567 14.9391 12.3233 14.9991 12.435C15.0624 12.545 15.0624 13.0767 14.8574 13.6933C14.6524 14.315 13.6706 14.88 13.1972 14.955C12.6791 15.049 12.1458 15.0123 11.6454 14.8483C11.1686 14.6888 10.7011 14.5024 10.2453 14.29C7.77505 13.14 6.16156 10.4633 6.03988 10.29C5.91654 10.1133 5.03479 8.85167 5.03479 7.54667C5.03479 6.24167 5.66818 5.60167 5.89487 5.33833C6.11989 5.07167 6.38825 5.005 6.5516 5.005Z" fill="#202020"/>
</svg>
