<svg id="Capa_1" enable-background="new 0 0 448.168 448.168" height="512" viewBox="0 0 448.168 448.168" width="512" xmlns="http://www.w3.org/2000/svg"><g clip-rule="evenodd" fill-rule="evenodd"><path id="Rope-2" d="m291.957 316.573c-.316-2.278 1.276-4.384 3.554-4.7s4.384 1.276 4.7 3.554c3.677 26.487 1.035 44.462-.713 63.076-1.685 17.935-2.487 36.487 4.624 64.471.566 2.229-.784 4.498-3.013 5.064-2.229.567-4.498-.783-5.064-3.012-7.423-29.213-6.603-48.579-4.844-67.303 1.695-18.045 4.321-35.471.756-61.15z" fill="#c95d7d"/><path id="Rope-1" d="m137.772 234.085c-1.15-1.991-.468-4.542 1.523-5.693 1.991-1.15 4.542-.468 5.692 1.523 0 0 11.827 20.229 19.224 73.512 3.004 21.639-.595 35.894-5.141 50.528-6.437 20.719-14.826 42.25-6.878 89.352.382 2.267-1.148 4.419-3.416 4.802-2.267.382-4.419-1.148-4.801-3.416-6.927-41.047-1.967-63.523 3.762-82.414 5.431-17.907 11.733-32.398 8.22-57.706-7.086-51.048-18.185-70.488-18.185-70.488z" fill="#c95d7d"/><path id="Balloon-Back" d="m127.79 228.743c-41.64-24.142-85.617-56.144-104.339-88.147-31.158-49.708-31.158-99.416 0-124.27 31.158-24.855 93.474-24.855 124.632 24.854 31.158-49.709 93.473-49.709 124.632-24.854 31.159 24.854 31.159 74.562 0 124.27-18.723 32.002-62.699 64.004-104.339 88.146l7.319 18.297c.986 2.465.685 5.258-.804 7.457-1.488 2.198-3.97 3.515-6.624 3.515h-40.368c-2.654 0-5.136-1.317-6.624-3.515-1.488-2.199-1.789-4.992-.803-7.457z" fill="#ffc2d4"/><path id="Balloon-Front" d="m280.441 317.107c-41.832-24.186-86.17-56.355-104.99-88.524-31.158-49.708-31.158-99.416 0-124.27 31.158-24.855 93.474-24.855 124.632 24.854 31.158-49.709 93.473-49.709 124.632-24.854 31.159 24.854 31.159 74.562 0 124.27-18.82 32.169-63.157 64.337-104.989 88.522l7.97 19.924c.985 2.465.685 5.258-.804 7.456-1.488 2.198-3.97 3.515-6.624 3.515h-40.368c-2.654 0-5.136-1.317-6.624-3.515-1.489-2.198-1.789-4.991-.804-7.456z" fill="#ff9ebb"/><path id="Shading-2" d="m371.278 128.294c-4.577-.444-7.933-4.522-7.488-9.1.444-4.577 4.522-7.933 9.1-7.488 32.416 3.149 52.015 21.532 59.329 54.488.997 4.49-1.839 8.945-6.329 9.941-4.49.997-8.945-1.839-9.941-6.329-5.538-24.949-20.132-39.128-44.671-41.512z" fill="#ffc2d4"/><path id="Shading-1" d="m223.278 36.294c-4.577-.444-7.933-4.522-7.488-9.1.444-4.577 4.522-7.933 9.1-7.488 32.416 3.149 52.015 21.532 59.329 54.488.997 4.49-1.839 8.945-6.329 9.941-4.49.997-8.945-1.839-9.941-6.329-5.538-24.949-20.132-39.128-44.671-41.512z" fill="#ff9ebb"/></g></svg>