<svg width="24" height="24" viewBox="0 0 24 24" fill="none" xmlns="http://www.w3.org/2000/svg">
<path d="M18.1801 10.0804C18.1801 8.44136 17.529 6.86945 16.3701 5.71047C15.2111 4.5515 13.6392 3.90039 12.0001 3.90039C10.3611 3.90039 8.78919 4.5515 7.63021 5.71047C6.47124 6.86945 5.82013 8.44136 5.82013 10.0804C5.82013 10.0804 5.47013 12.9204 9.51013 18.7904C9.78379 19.203 10.1553 19.5414 10.5915 19.7755C11.0277 20.0096 11.5151 20.1321 12.0101 20.1321C12.5052 20.1321 12.9926 20.0096 13.4288 19.7755C13.865 19.5414 14.2365 19.203 14.5101 18.7904C18.5301 12.9204 18.1801 10.0804 18.1801 10.0804ZM12.0001 12.0804C11.6046 12.0804 11.2179 11.9631 10.889 11.7434C10.5601 11.5236 10.3037 11.2112 10.1524 10.8458C10.001 10.4803 9.96139 10.0782 10.0386 9.69021C10.1157 9.30225 10.3062 8.94589 10.5859 8.66618C10.8656 8.38648 11.222 8.19599 11.61 8.11882C11.9979 8.04165 12.4 8.08126 12.7655 8.23263C13.131 8.38401 13.4433 8.64036 13.6631 8.96925C13.8828 9.29815 14.0001 9.68483 14.0001 10.0804C13.9975 10.6091 13.7856 11.1153 13.4108 11.4882C13.036 11.8611 12.5288 12.0704 12.0001 12.0704V12.0804Z" fill="#EE1B55"/>
</svg>
