<svg width="160" height="88" viewBox="0 0 160 88" fill="none" xmlns="http://www.w3.org/2000/svg">
<path opacity="0.99" fill-rule="evenodd" clip-rule="evenodd" d="M148.164 0C148.181 0.0031275 148.195 0.01251 148.205 0.0284318C148.33 1.9018 148.567 3.75926 148.916 5.60107C149.139 6.75227 149.504 7.85145 150.009 8.89916C150.73 10.2861 151.773 11.3238 153.139 12.0124C154.284 12.5541 155.477 12.9334 156.72 13.1497C157.811 13.3391 158.905 13.4906 160 13.6046C158.273 13.7257 156.569 14.0007 154.888 14.4291C153.686 14.7419 152.593 15.2821 151.608 16.0498C150.604 16.9479 149.889 18.0519 149.463 19.3621C149.064 20.594 148.781 21.8544 148.615 23.1435C148.444 24.4895 148.298 25.8351 148.178 27.1808C148.062 25.494 147.871 23.8165 147.604 22.1484C147.412 20.9531 147.093 19.7971 146.647 18.6797C145.897 16.9141 144.663 15.6679 142.943 14.9409C141.909 14.5181 140.843 14.2148 139.745 14.0311C138.63 13.84 137.509 13.6979 136.383 13.6046C137.58 13.4832 138.774 13.3126 139.964 13.0929C141.378 12.8364 142.708 12.3437 143.955 11.6144C145.156 10.8197 146.044 9.74415 146.62 8.38739C147.057 7.30669 147.376 6.18819 147.576 5.03243C147.86 3.36604 148.056 1.68857 148.164 0Z" fill="#F6D56F"/>
<path opacity="0.999" fill-rule="evenodd" clip-rule="evenodd" d="M86.3881 15.8649C89.698 15.8462 92.9782 16.1637 96.2285 16.8174C97.6212 17.1216 98.9833 17.5339 100.315 18.0542C102.721 16.4648 105.24 16.2516 107.873 17.4145C108.887 17.9086 109.844 18.496 110.743 19.1772C111.888 20.0831 112.967 21.0733 113.982 22.1484C115.711 24.0499 117.305 26.0592 118.766 28.1759C119.399 29.1153 120.033 30.0535 120.666 30.9907C122.302 28.5722 124.029 26.2218 125.846 23.9396C127.176 22.3187 128.638 20.845 130.233 19.5184C131.206 18.7442 132.245 18.0712 133.349 17.4998C136.691 16.0224 139.698 16.5533 142.369 19.0919C144.264 20.8979 145.088 23.1395 144.843 25.8161C144.72 27.1703 144.438 28.4875 143.996 29.7681C143.237 31.8948 142.317 33.9419 141.235 35.9094C139.711 38.6357 138.071 41.2798 136.315 43.8418C134.825 46.0078 133.303 48.1495 131.75 50.2674C131.765 52.2102 131.765 54.1529 131.75 56.096C131.748 57.8294 131.671 59.559 131.517 61.2848C131.312 63.484 130.824 65.6115 130.055 67.6677C129.357 69.4259 128.314 70.9186 126.925 72.1457C125.739 73.0183 124.418 73.5207 122.962 73.6526C118.68 74.1291 115.45 72.4565 113.272 68.6344C112.433 67.0783 111.786 65.4387 111.331 63.7157C110.798 61.6982 110.406 59.6511 110.155 57.5744C109.862 55.119 109.671 52.6549 109.581 50.1821C109.217 49.6704 108.852 49.1586 108.488 48.6468C107.732 50.04 106.848 51.3382 105.837 52.542C105.439 52.9838 105.034 53.4148 104.62 53.8356C105.62 56.2338 106.49 58.6838 107.231 61.1853C107.992 63.9201 108.01 66.6589 107.285 69.4021C106.758 71.0966 105.833 72.504 104.511 73.6242C102.386 75.1746 100.081 75.5442 97.5953 74.733C95.8879 74.207 94.4346 73.2639 93.2354 71.9041C92.2153 70.6934 91.3862 69.3477 90.748 67.8667C90.3989 67.0647 90.0799 66.2495 89.7913 65.4216C89.1142 63.3336 88.4581 61.239 87.8232 59.1382C87.3639 60.9979 86.7899 62.8175 86.1011 64.5971C85.4418 66.2967 84.4804 67.78 83.2173 69.0467C81.2621 70.8396 78.984 71.5504 76.3837 71.179C74.8876 71.0332 73.4936 70.5686 72.2015 69.7859C71.01 68.9636 70.1126 67.8784 69.509 66.5304C69.3907 66.2461 69.272 65.9618 69.1537 65.6775C68.7844 67.1247 68.2194 68.48 67.4589 69.7432C66.59 71.0832 65.4646 72.121 64.0831 72.8565C62.9618 73.378 61.7865 73.6623 60.557 73.7095C56.9655 73.9287 54.0997 72.5497 51.9602 69.5726C51.0292 68.1954 50.2912 66.7073 49.7461 65.1088C49.5329 64.5001 49.3416 63.8843 49.1721 63.2608C48.7818 64.8021 48.1624 66.2333 47.3134 67.554C46.1536 69.2315 44.6275 70.402 42.7348 71.0653C40.658 71.7977 38.5349 71.9967 36.3659 71.6624C35.2208 71.4457 34.1821 70.9812 33.2497 70.2692C32.0243 69.3077 31.0449 68.1277 30.3113 66.7295C29.3587 64.8183 28.7117 62.7996 28.3705 60.6735C27.9362 57.8641 27.6311 55.04 27.4548 52.2008C25.703 52.4192 23.9535 52.656 22.2066 52.9116C22.8088 56.0024 23.2234 59.1205 23.4503 62.2657C23.5621 64.34 23.3527 66.3778 22.8216 68.3785C22.3323 70.0133 21.5167 71.4398 20.3752 72.6575C19.5697 73.4465 18.6404 74.0342 17.5871 74.4203C15.079 75.342 12.5369 75.4651 9.96072 74.7899C8.32988 74.2682 6.94039 73.3535 5.7922 72.0462C4.71989 70.7742 3.84519 69.3622 3.16808 67.8099C2.13402 65.3886 1.41422 62.8676 1.00866 60.247C0.231179 55.3795 -0.0968355 50.4798 0.0246119 45.5477C0.190888 40.5887 1.1476 35.8027 2.89474 31.1897C4.22036 27.7713 6.16567 24.8002 8.73066 22.2763C9.92395 21.1399 11.2451 20.1922 12.6942 19.4331C18.5695 16.2925 24.6377 15.828 30.899 18.04C32.981 18.873 34.8762 20.0197 36.5846 21.4802C38.4337 23.061 40.0421 24.8664 41.4091 26.8965C44.0135 30.7891 45.9543 35.0254 47.2314 39.6055C47.2655 38.3076 47.2836 37.0091 47.286 35.7103C47.3257 32.191 47.7811 28.7317 48.6528 25.3327C49.3134 22.9152 50.4158 20.7543 51.9602 18.8503C53.3603 17.3425 55.0687 16.466 57.0855 16.2203C58.4221 16.0239 59.7525 16.0617 61.0763 16.334C62.9083 16.7625 64.398 17.7434 65.5455 19.2767C66.2852 20.2937 66.8775 21.4026 67.3223 22.6033C68.0603 24.6978 68.5887 26.849 68.9077 29.0573C69.2491 31.4151 69.4861 33.7846 69.6184 36.1652C69.7345 38.2203 69.8165 40.2768 69.8644 42.335C70.3712 39.0164 71.0182 35.7277 71.8051 32.4691C72.3778 30.0754 73.1248 27.744 74.0466 25.4749C74.8002 23.6214 75.7752 21.9155 76.9714 20.3571C78.9733 17.8537 81.5384 16.3989 84.666 15.9929C85.2433 15.9346 85.8174 15.8919 86.3881 15.8649ZM93.3857 29.9671C93.5435 29.9464 93.6894 29.9796 93.8231 30.0666C94.8214 30.7908 95.4727 31.7717 95.7775 33.0093C96.4366 35.9546 96.0812 38.7599 94.7115 41.4251C94.3378 42.1553 93.8595 42.8044 93.2764 43.3727C92.715 43.8873 92.0682 44.2097 91.3357 44.3394C90.7813 44.398 90.4853 44.1372 90.4473 43.5575C90.4164 43.3022 90.4071 43.0463 90.4199 42.7899C91.0377 38.6371 91.8758 34.5335 92.9347 30.4789C92.9984 30.3652 93.0624 30.2514 93.1261 30.1377C93.2122 30.0766 93.2985 30.0197 93.3857 29.9671ZM22.3159 30.1093C23.3199 30.0322 24.1536 30.3828 24.817 31.1612C25.4015 31.9317 25.8208 32.7941 26.0744 33.7485C26.3322 34.7007 26.5235 35.6674 26.6485 36.6486C26.8636 38.5385 27.0046 40.4337 27.0721 42.335C24.8077 42.6346 22.5436 42.938 20.2795 43.2448C20.2342 43.2397 20.1978 43.2209 20.1702 43.1879C19.7183 41.1601 19.3721 39.1131 19.1315 37.0466C18.9955 35.832 19.0046 34.6188 19.1588 33.4074C19.2791 32.5763 19.5798 31.8274 20.0608 31.1612C20.4211 30.7393 20.863 30.4502 21.3866 30.2941C21.6962 30.2105 22.006 30.1488 22.3159 30.1093Z" fill="#D80C3E"/>
<path opacity="0.774" fill-rule="evenodd" clip-rule="evenodd" d="M33.8511 80.0356C35.2673 79.9781 36.256 80.6224 36.8169 81.9689C37.2184 83.2785 36.9497 84.4109 36.0105 85.3665C35.2159 86.0162 34.3229 86.2152 33.3317 85.9636C32.4097 85.6776 31.7767 85.0663 31.432 84.1298C31.0378 82.798 31.3248 81.6562 32.293 80.7037C32.7509 80.3224 33.2702 80.0995 33.8511 80.0356ZM33.8784 80.8032C34.9836 80.7737 35.7353 81.2951 36.1335 82.367C36.3716 83.2859 36.1759 84.0868 35.5458 84.7695C34.8824 85.3347 34.1444 85.4675 33.3317 85.1675C32.4272 84.7126 31.9943 83.9592 32.0333 82.9072C32.1801 81.7548 32.7952 81.0534 33.8784 80.8032Z" fill="#333333"/>
<path opacity="0.771" fill-rule="evenodd" clip-rule="evenodd" d="M39.3454 80.0356C40.0243 79.9657 40.5754 80.2028 40.9991 80.7464C41.206 81.1496 41.2607 81.576 41.1631 82.0258C41.0603 82.3647 40.8553 82.6112 40.5481 82.7651C41.3173 83.21 41.5953 83.8827 41.3818 84.7837C41.0849 85.6682 40.4836 86.0947 39.5777 86.0631C38.852 86.0811 38.246 85.8155 37.7599 85.2671C37.9059 85.0632 38.0699 84.8878 38.252 84.7411C38.7369 85.2654 39.3199 85.4359 40.0014 85.2528C40.5606 84.9779 40.7564 84.5278 40.5891 83.9023C40.445 83.5535 40.1946 83.3402 39.8374 83.2626C39.619 83.2484 39.4003 83.2436 39.1813 83.2484C39.1813 83.0209 39.1813 82.7935 39.1813 82.566C39.6182 82.6482 39.9962 82.5345 40.3157 82.2249C40.5721 81.789 40.5404 81.3767 40.2201 80.9881C39.8188 80.7356 39.3995 80.7072 38.9627 80.9028C38.77 80.9946 38.5876 81.1038 38.416 81.2297C38.2632 81.068 38.1265 80.8928 38.006 80.7037C38.3881 80.3438 38.8347 80.1212 39.3454 80.0356Z" fill="#333333"/>
<path opacity="0.772" fill-rule="evenodd" clip-rule="evenodd" d="M94.7525 80.0356C96.0736 79.9429 97.0349 80.5019 97.6363 81.7131C97.8169 82.1583 97.9036 82.6226 97.8959 83.1063C96.2559 83.1014 94.6158 83.1063 92.9757 83.1205C93.0173 83.9467 93.3636 84.591 94.0144 85.0538C94.9564 85.5073 95.8174 85.3794 96.5976 84.67C96.7722 84.4363 96.9409 84.1995 97.1032 83.9592C97.3236 84.0547 97.5242 84.1778 97.7046 84.3288C97.1768 85.4661 96.3021 86.0444 95.0805 86.0632C93.6853 86.0367 92.7696 85.3356 92.3334 83.9592C92.0032 82.5058 92.4088 81.3355 93.5498 80.4479C93.9264 80.2221 94.3274 80.0848 94.7525 80.0356ZM94.7798 80.7748C95.5187 80.7166 96.143 80.9631 96.6522 81.5141C96.8512 81.7856 96.9832 82.089 97.0486 82.4239C95.7275 82.4239 94.4061 82.4239 93.0851 82.4239C93.3089 81.4896 93.8739 80.9397 94.7798 80.7748Z" fill="#333333"/>
<path opacity="0.774" fill-rule="evenodd" clip-rule="evenodd" d="M106.643 80.0356C108.059 79.9781 109.048 80.6224 109.609 81.9689C110.01 83.2785 109.742 84.4109 108.802 85.3665C108.008 86.0162 107.115 86.2152 106.124 85.9636C105.202 85.6776 104.569 85.0663 104.224 84.1298C103.83 82.798 104.117 81.6562 105.085 80.7037C105.543 80.3224 106.062 80.0995 106.643 80.0356ZM106.67 80.8032C107.775 80.7737 108.527 81.2951 108.925 82.367C109.163 83.2859 108.968 84.0868 108.338 84.7695C107.674 85.3347 106.936 85.4675 106.124 85.1675C105.219 84.7126 104.786 83.9592 104.825 82.9072C104.972 81.7548 105.587 81.0534 106.67 80.8032Z" fill="#333333"/>
<path opacity="0.774" fill-rule="evenodd" clip-rule="evenodd" d="M113.668 80.0356C115.031 79.9887 116.002 80.6046 116.579 81.8837C117.026 83.2612 116.739 84.4411 115.718 85.4235C114.877 86.0743 113.957 86.2261 112.957 85.8784C112.498 85.6799 112.111 85.3814 111.796 84.9828C111.782 85.9873 111.777 86.992 111.782 87.9965C111.536 87.9965 111.29 87.9965 111.044 87.9965C111.044 85.3902 111.044 82.7841 111.044 80.1778C111.29 80.1778 111.536 80.1778 111.782 80.1778C111.777 80.5096 111.782 80.8414 111.796 81.1729C112.257 80.5039 112.881 80.1249 113.668 80.0356ZM113.613 80.7749C114.928 80.7456 115.726 81.3995 116.005 82.7367C116.083 83.7454 115.714 84.5176 114.898 85.0538C113.857 85.5406 112.95 85.3461 112.178 84.471C111.787 83.8859 111.659 83.2416 111.796 82.5376C112.048 81.5505 112.653 80.9628 113.613 80.7749Z" fill="#333333"/>
<path opacity="0.78" fill-rule="evenodd" clip-rule="evenodd" d="M26.7442 80.1778C27.4374 80.1658 28.1301 80.18 28.8216 80.2204C29.4736 80.3205 29.8699 80.7043 30.0107 81.3719C30.1113 82.0056 29.8972 82.4796 29.3683 82.7935C30.1897 83.1884 30.5041 83.8517 30.3114 84.7837C30.1542 85.3546 29.7942 85.7006 29.2316 85.8215C29.0425 85.8653 28.8511 85.8937 28.6576 85.9068C28.0199 85.921 27.3822 85.9258 26.7442 85.921C26.7442 84.0067 26.7442 82.0921 26.7442 80.1778ZM27.4822 80.8601C27.8286 80.8553 28.1749 80.8601 28.5209 80.8743C28.9963 80.9474 29.2333 81.2366 29.2316 81.7415C29.2363 82.0872 29.0906 82.3383 28.7943 82.495C28.6964 82.5254 28.5961 82.5444 28.4936 82.5518C28.1566 82.566 27.8195 82.5709 27.4822 82.566C27.4822 81.9974 27.4822 81.4288 27.4822 80.8601ZM27.4822 83.3053C27.8923 83.3004 28.3023 83.3053 28.7123 83.3195C29.318 83.4764 29.5777 83.879 29.4913 84.5278C29.3776 84.968 29.0999 85.2 28.6576 85.2244C28.2659 85.2386 27.8742 85.2435 27.4822 85.2386C27.4822 84.5941 27.4822 83.9498 27.4822 83.3053Z" fill="#333333"/>
<path opacity="0.771" fill-rule="evenodd" clip-rule="evenodd" d="M44.7576 80.1777C44.9033 80.1777 45.0493 80.1777 45.195 80.1777C45.8767 81.8589 46.5691 83.5364 47.2724 85.2101C47.4902 85.2386 47.7089 85.248 47.9284 85.2386C47.9284 85.7125 47.9284 86.1862 47.9284 86.6602C47.6914 86.6602 47.4547 86.6602 47.2177 86.6602C47.2177 86.4137 47.2177 86.1674 47.2177 85.9209C45.7233 85.9209 44.2292 85.9209 42.7349 85.9209C42.7349 86.1768 42.7349 86.4327 42.7349 86.6886C42.4888 86.6886 42.2428 86.6886 41.9968 86.6886C41.9968 86.2053 41.9968 85.7219 41.9968 85.2386C42.2253 85.248 42.453 85.2386 42.6802 85.2101C43.3808 83.5349 44.0732 81.8575 44.7576 80.1777ZM44.949 81.4003C45.4601 82.6629 45.9612 83.9327 46.4524 85.2101C45.441 85.248 44.4296 85.248 43.4182 85.2101C43.9441 83.9458 44.4542 82.6757 44.949 81.4003Z" fill="#333333"/>
<path opacity="0.771" fill-rule="evenodd" clip-rule="evenodd" d="M48.2291 80.1777C48.5002 80.1686 48.7689 80.178 49.0354 80.2062C49.6434 81.632 50.2584 83.0536 50.8805 84.4709C51.4843 83.0536 52.081 81.632 52.6709 80.2062C52.9374 80.178 53.2061 80.1686 53.4773 80.1777C52.4039 82.7781 51.3195 85.3751 50.2245 87.9681C49.961 87.9965 49.6967 88.0059 49.4318 87.9965C49.7699 87.1458 50.116 86.2977 50.4705 85.4518C49.7193 83.6948 48.972 81.9368 48.2291 80.1777Z" fill="#333333"/>
<path opacity="0.78" fill-rule="evenodd" clip-rule="evenodd" d="M54.3247 80.1777C54.5707 80.1777 54.8167 80.1777 55.0627 80.1777C55.0627 81.8458 55.0627 83.5136 55.0627 85.1817C56.0558 85.1817 57.0491 85.1817 58.0422 85.1817C58.0422 83.5136 58.0422 81.8458 58.0422 80.1777C58.2972 80.1777 58.5525 80.1777 58.8076 80.1777C58.8076 81.8458 58.8076 83.5136 58.8076 85.1817C59.7916 85.1817 60.7757 85.1817 61.7597 85.1817C61.7597 83.5136 61.7597 81.8458 61.7597 80.1777C62.0147 80.1777 62.27 80.1777 62.5251 80.1777C62.5251 82.092 62.5251 84.0066 62.5251 85.9209C59.7916 85.9209 57.0582 85.9209 54.3247 85.9209C54.3247 84.0066 54.3247 82.092 54.3247 80.1777Z" fill="#333333"/>
<path opacity="0.787" fill-rule="evenodd" clip-rule="evenodd" d="M64.0558 80.1777C64.3018 80.1777 64.5478 80.1777 64.7938 80.1777C64.7938 80.9263 64.7938 81.6752 64.7938 82.4238C65.8416 82.4238 66.8896 82.4238 67.9373 82.4238C67.9373 81.6752 67.9373 80.9263 67.9373 80.1777C68.1833 80.1777 68.4293 80.1777 68.6753 80.1777C68.6753 82.092 68.6753 84.0066 68.6753 85.9209C68.4293 85.9209 68.1833 85.9209 67.9373 85.9209C67.9373 85.0017 67.9373 84.0822 67.9373 83.163C66.8896 83.163 65.8416 83.163 64.7938 83.163C64.7938 84.0822 64.7938 85.0017 64.7938 85.9209C64.5478 85.9209 64.3018 85.9209 64.0558 85.9209C64.0558 84.0066 64.0558 82.092 64.0558 80.1777Z" fill="#333333"/>
<path opacity="0.779" fill-rule="evenodd" clip-rule="evenodd" d="M70.2061 80.1777C70.4521 80.1777 70.6981 80.1777 70.9441 80.1777C70.9441 80.9263 70.9441 81.6752 70.9441 82.4238C71.4924 82.4096 72.0391 82.4332 72.5842 82.4949C73.1861 82.6064 73.6098 82.9524 73.8552 83.5327C74.1165 84.3549 73.9296 85.0421 73.2949 85.594C72.9931 85.7839 72.6651 85.8882 72.3108 85.9067C71.6094 85.9209 70.9077 85.9258 70.2061 85.9209C70.2061 84.0066 70.2061 82.092 70.2061 80.1777ZM70.9714 83.1062C71.3268 83.1013 71.6821 83.1062 72.0375 83.1204C72.8665 83.1775 73.2262 83.637 73.1172 84.4993C73.0467 84.7717 72.887 84.9662 72.6388 85.0822C72.4628 85.155 72.2805 85.2022 72.0921 85.2244C71.7187 85.2386 71.3451 85.2434 70.9714 85.2386C70.9714 84.5278 70.9714 83.817 70.9714 83.1062Z" fill="#333333"/>
<path opacity="0.768" fill-rule="evenodd" clip-rule="evenodd" d="M74.8802 80.1777C75.1353 80.1777 75.3906 80.1777 75.6456 80.1777C75.6456 82.092 75.6456 84.0066 75.6456 85.9209C75.3906 85.9209 75.1353 85.9209 74.8802 85.9209C74.8802 84.0066 74.8802 82.092 74.8802 80.1777Z" fill="#333333"/>
<path opacity="0.782" fill-rule="evenodd" clip-rule="evenodd" d="M77.0944 80.1778C77.3404 80.1778 77.5864 80.1778 77.8324 80.1778C77.8277 81.5709 77.8324 82.9641 77.8461 84.3573C79.1628 82.9689 80.4792 81.5803 81.7959 80.192C81.8312 80.1781 81.8678 80.1732 81.9052 80.1778C81.9052 82.0921 81.9052 84.0067 81.9052 85.921C81.6592 85.921 81.4132 85.921 81.1672 85.921C81.1719 84.5469 81.1672 83.1725 81.1535 81.7984C79.856 83.1765 78.5483 84.546 77.231 85.9068C77.1865 85.9207 77.1408 85.9256 77.0944 85.921C77.0944 84.0067 77.0944 82.0921 77.0944 80.1778Z" fill="#333333"/>
<path opacity="0.771" fill-rule="evenodd" clip-rule="evenodd" d="M88.4109 80.1777C88.5566 80.1777 88.7025 80.1777 88.8482 80.1777C89.53 81.8589 90.2223 83.5364 90.9257 85.2101C91.1435 85.2386 91.3622 85.248 91.5817 85.2386C91.5817 85.7125 91.5817 86.1862 91.5817 86.6602C91.3447 86.6602 91.108 86.6602 90.871 86.6602C90.871 86.4137 90.871 86.1674 90.871 85.9209C89.3766 85.9209 87.8825 85.9209 86.3881 85.9209C86.3881 86.1768 86.3881 86.4327 86.3881 86.6886C86.1421 86.6886 85.8961 86.6886 85.6501 86.6886C85.6501 86.2053 85.6501 85.7219 85.6501 85.2386C85.8786 85.248 86.1063 85.2386 86.3334 85.2101C87.034 83.5349 87.7264 81.8575 88.4109 80.1777ZM88.6022 81.4003C89.1134 82.6629 89.6144 83.9327 90.1056 85.2101C89.0942 85.248 88.0829 85.248 87.0715 85.2101C87.5974 83.9458 88.1075 82.6757 88.6022 81.4003Z" fill="#333333"/>
<path opacity="0.779" fill-rule="evenodd" clip-rule="evenodd" d="M99.1533 80.1777C99.3993 80.1777 99.6453 80.1777 99.8914 80.1777C99.8867 80.9644 99.8914 81.7512 99.905 82.5376C100.73 81.7557 101.554 80.9738 102.379 80.192C102.725 80.1684 103.072 80.1729 103.418 80.2062C102.502 81.0779 101.582 81.9451 100.657 82.8077C101.647 83.8417 102.64 84.8701 103.636 85.8925C103.281 85.9258 102.926 85.9303 102.57 85.9067C101.755 85.0308 100.931 84.1636 100.096 83.3052C100.041 83.3726 99.9769 83.4295 99.905 83.4758C99.8914 84.2907 99.8867 85.1058 99.8914 85.921C99.6453 85.921 99.3993 85.921 99.1533 85.921C99.1533 84.0066 99.1533 82.0921 99.1533 80.1777Z" fill="#333333"/>
</svg>
